<svg width="521" height="160" viewBox="0 0 521 160" fill="none" xmlns="http://www.w3.org/2000/svg">
<g clip-path="url(#clip0_0_752)">
<path d="M70.0253 155.963C68.8136 159.725 67.5173 163.455 66.3125 167.217C63.1536 158.424 60.377 149.495 57.2943 140.675C55.1754 134.107 52.8211 127.62 50.7785 121.026C53.6341 118.74 56.5284 116.492 59.2331 114.033L59.2718 113.632C59.3037 113.716 59.3716 113.886 59.4048 113.97C60.1097 113.367 60.7786 112.723 61.4585 112.095C62.8019 116.084 63.8599 120.165 65.2337 124.149C65.5965 125.242 65.8915 126.356 66.1712 127.469C66.6463 125.396 67.4065 123.406 68.0422 121.38C69.8868 115.503 71.755 109.633 73.644 103.767C73.9293 102.997 73.957 102.066 74.54 101.443C77.3042 99.2366 79.9354 96.8623 82.5348 94.4644C84.7132 94.6351 86.8971 94.4408 89.0769 94.4852C94.6731 94.5449 100.269 94.4463 105.863 94.4908C106.529 94.4852 107.19 94.5823 107.843 94.6767C105.259 92.8075 102.471 91.245 99.7944 89.5173C96.9706 87.6926 94.0181 86.0829 91.2359 84.1901C93.1276 81.9282 94.8047 79.4914 96.5524 77.1143C97.3626 75.8918 98.3347 74.7761 99.005 73.462C108.232 79.3263 117.28 85.4626 126.402 91.4934C133.852 96.5778 141.509 101.379 148.777 106.724C133.005 106.831 117.234 106.756 101.462 106.777C96.3391 106.769 91.2151 106.845 86.0925 106.751C84.5955 112.007 82.6678 117.131 81.0585 122.355C77.4039 133.565 73.6177 144.733 70.0253 155.963Z" fill="white"/>
<path d="M27.5358 133.431C26.192 139.85 26.009 146.442 26.6533 152.949C22.2799 140.926 20.9023 127.823 22.9349 115.182C26.4254 94.7086 38.7536 76.6415 54.3135 63.2648C57.9059 59.9561 61.7941 56.9594 65.9112 54.3177C78.278 45.8833 91.5464 38.7419 105.411 33.0889C105.478 32.7975 105.608 32.2083 105.671 31.9166C106.068 32.1193 106.461 32.3217 106.851 32.5236C119.665 26.7493 133.315 23.1077 147.04 20.2573C139.932 24.3333 132.763 28.3399 125.627 32.3783C106.376 43.6717 88.4377 57.0571 71.3036 71.3182C62.0643 79.1574 53.2432 87.5422 45.6135 96.9768C37.2715 107.756 30.4024 120.006 27.5358 133.431Z" fill="white"/>
<path d="M49.2067 136.094C47.3178 136.649 45.7972 138.254 45.5701 140.249C45.1601 139.201 44.6921 138.144 43.9082 137.314C43.1687 136.579 42.1661 136.215 41.2299 135.799C43.3335 135.485 44.807 133.684 45.3859 131.73C45.9218 132.799 46.3497 133.998 47.3247 134.754C47.8994 135.155 48.5364 135.445 49.1513 135.764C49.1652 135.847 49.1956 136.012 49.2067 136.094Z" fill="white"/>
<path d="M91.9952 133.753C89.965 134.154 88.2048 135.776 87.9929 137.899C87.6633 137.038 87.3268 136.156 86.7175 135.442C86.0278 134.509 84.9254 134.057 83.9062 133.578C85.8685 133.088 87.4597 131.476 87.9472 129.512C88.4015 130.549 88.9319 131.58 89.7392 132.386C90.4303 132.934 91.2377 133.306 91.9952 133.753Z" fill="white"/>
<path d="M98.8263 122.127C97.7738 121.498 96.7988 120.642 95.5524 120.426C94.4556 120.266 93.3533 120.509 92.2662 120.65C92.8118 119.8 93.5804 119.046 93.8283 118.037C93.946 116.836 93.7286 115.631 93.4447 114.464C94.2728 114.896 95.0414 115.43 95.8668 115.864C97.0606 116.479 98.4136 116.016 99.6544 115.856C99.1212 116.641 98.6088 117.456 98.2571 118.343C98.0757 119.635 98.6005 120.874 98.8263 122.127Z" fill="white"/>
<path d="M28.3945 78.1079C28.2309 78.369 28.3753 79.0699 27.9037 78.9299C27.5294 78.1026 27.2934 77.1708 26.6254 76.5128C25.8297 75.8156 24.8447 75.4001 23.8885 74.9749C25.8321 74.4211 27.0813 72.6158 27.6368 70.7592C28.0854 71.6709 28.5354 72.6159 29.2976 73.3075C30.0751 74.0637 31.1528 74.3435 32.1506 74.671C30.4985 75.2001 28.8383 76.331 28.3945 78.1079Z" fill="white"/>
<path d="M119.237 72.5415C118.819 71.5854 118.519 70.51 117.699 69.8036C116.909 69.1181 115.966 68.6227 114.982 68.28C116.918 67.668 118.503 66.1249 119.133 64.1863C119.632 65.1549 120.003 66.2442 120.84 66.9825C121.532 67.6472 122.493 67.8803 123.35 68.2411C121.198 68.5936 119.561 70.41 119.237 72.5415Z" fill="white"/>
<path d="M57.6641 60.9231C54.4645 64.045 50.9614 66.8741 47.6302 69.8654C47.1291 68.6948 46.594 67.538 46.0767 66.375C43.5978 59.8916 40.9483 53.4737 38.4284 47.0059C36.0683 40.8772 33.467 34.8476 31.1411 28.7063C29.0712 23.6793 27.0723 18.6272 25.2577 13.5047C27.9626 15.5342 30.9362 17.1621 33.7676 19.0001C45.3395 26.2489 56.9257 33.4734 68.5172 40.6949C70.8724 42.2835 73.4239 43.5958 75.651 45.3704C73.0756 47.548 70.5075 49.7336 67.9656 51.9501C67.0176 52.776 65.9619 53.4801 65.1168 54.4142C61.4437 52.1393 57.8749 49.7058 54.2317 47.3811C53.3666 46.8827 52.522 46.3418 51.7453 45.7035C51.7839 45.9297 51.8625 46.382 51.901 46.6067L52.0493 46.4088C53.7931 51.2939 56.0445 55.9897 57.6641 60.9231Z" fill="white"/>
<path d="M114.7 56.5645C113.391 56.9989 112.469 58.0729 111.463 58.9541C111.51 57.8828 111.586 56.7657 111.218 55.7347C110.779 54.6426 109.951 53.7531 109.019 53.0537C110.092 53.0537 111.226 53.1425 112.217 52.6527C113.113 52.1392 113.888 51.4482 114.651 50.7599C114.716 51.7077 114.657 52.6846 114.972 53.5921C115.485 54.6967 116.576 55.3462 117.374 56.2148C116.478 56.2218 115.543 56.1954 114.7 56.5645Z" fill="white"/>
<path d="M35.4003 63.8224C34.2506 63.1471 32.9897 62.6945 31.7065 62.34C30.6489 62.1747 29.5728 62.3269 28.5147 62.4144C29.1014 61.63 29.8769 60.921 30.1551 59.9538C30.1774 58.8029 29.9407 57.6545 29.4983 56.5939C30.7416 57.4847 32.3848 58.3907 33.9229 57.7205C34.4318 57.5603 34.9311 57.3685 35.4277 57.181C34.9892 58.1924 34.4679 59.2435 34.5684 60.3823C34.6006 61.5796 35.0674 62.6933 35.4003 63.8224Z" fill="white"/>
<path d="M79.3632 37.2947C78.8178 36.2565 78.4761 35.05 77.5599 34.2579C76.7889 33.525 75.7196 33.2797 74.7668 32.8683C77.0651 32.3787 78.4423 30.2195 78.9449 28.0609C79.4898 30.2755 81.2795 31.9003 83.3783 32.633C81.2956 33.3052 79.6177 35.0701 79.3632 37.2947Z" fill="white"/>
</g>
<path d="M215.216 66.9883H200.481L198.119 73.9624H188.051L202.337 34.4802H213.473L227.759 73.9624H217.579L215.216 66.9883ZM212.742 59.5643L207.849 45.11L203.012 59.5643H212.742ZM246.392 74.3561C243.505 74.3561 240.918 73.8874 238.63 72.95C236.343 72.0127 234.506 70.6254 233.119 68.7881C231.769 66.9508 231.056 64.7386 230.981 62.1515H241.218C241.368 63.6138 241.874 64.7386 242.736 65.526C243.599 66.2759 244.723 66.6509 246.111 66.6509C247.536 66.6509 248.66 66.3322 249.485 65.6948C250.31 65.0199 250.723 64.1012 250.723 62.9389C250.723 61.964 250.385 61.1579 249.71 60.5205C249.073 59.883 248.267 59.3581 247.292 58.9457C246.354 58.5332 245.005 58.0645 243.242 57.5396C240.693 56.7522 238.612 55.9648 236.999 55.1774C235.387 54.39 234 53.2277 232.837 51.6904C231.675 50.1531 231.094 48.1471 231.094 45.6725C231.094 41.998 232.425 39.1296 235.087 37.0674C237.749 34.9676 241.218 33.9178 245.492 33.9178C249.841 33.9178 253.347 34.9676 256.009 37.0674C258.672 39.1296 260.096 42.0167 260.284 45.7287H249.879C249.804 44.4539 249.335 43.4603 248.473 42.7479C247.61 41.998 246.504 41.623 245.155 41.623C243.992 41.623 243.055 41.9417 242.342 42.5791C241.63 43.179 241.274 44.0602 241.274 45.2225C241.274 46.4973 241.874 47.491 243.074 48.2034C244.273 48.9158 246.148 49.6844 248.698 50.5093C251.248 51.3717 253.31 52.1966 254.885 52.984C256.497 53.7714 257.884 54.915 259.046 56.4148C260.209 57.9146 260.79 59.8456 260.79 62.2077C260.79 64.4574 260.209 66.5009 259.046 68.3382C257.922 70.1754 256.272 71.6377 254.097 72.7251C251.922 73.8124 249.354 74.3561 246.392 74.3561ZM295.111 34.4802V42.1854H284.65V73.9624H275.032V42.1854H264.571V34.4802H295.111ZM320.073 73.9624L311.861 59.0582H309.555V73.9624H299.938V34.4802H316.079C319.191 34.4802 321.835 35.0239 324.01 36.1112C326.222 37.1986 327.872 38.6984 328.959 40.6106C330.046 42.4854 330.59 44.5851 330.59 46.9098C330.59 49.5344 329.84 51.8779 328.34 53.9401C326.878 56.0023 324.703 57.4646 321.816 58.327L330.927 73.9624H320.073ZM309.555 52.2528H315.517C317.279 52.2528 318.592 51.8216 319.454 50.9592C320.354 50.0969 320.804 48.8783 320.804 47.3035C320.804 45.8037 320.354 44.6226 319.454 43.7602C318.592 42.8978 317.279 42.4666 315.517 42.4666H309.555V52.2528ZM355.3 74.3561C351.588 74.3561 348.176 73.4937 345.064 71.7689C341.989 70.0442 339.533 67.6445 337.696 64.5699C335.896 61.4578 334.996 57.9708 334.996 54.1088C334.996 50.2468 335.896 46.7786 337.696 43.704C339.533 40.6294 341.989 38.2297 345.064 36.5049C348.176 34.7802 351.588 33.9178 355.3 33.9178C359.012 33.9178 362.405 34.7802 365.48 36.5049C368.592 38.2297 371.029 40.6294 372.791 43.704C374.591 46.7786 375.491 50.2468 375.491 54.1088C375.491 57.9708 374.591 61.4578 372.791 64.5699C370.991 67.6445 368.554 70.0442 365.48 71.7689C362.405 73.4937 359.012 74.3561 355.3 74.3561ZM355.3 65.5823C358.449 65.5823 360.961 64.5324 362.836 62.4327C364.748 60.333 365.705 57.5584 365.705 54.1088C365.705 50.6218 364.748 47.8472 362.836 45.7849C360.961 43.6852 358.449 42.6354 355.3 42.6354C352.113 42.6354 349.563 43.6665 347.651 45.7287C345.776 47.7909 344.839 50.5843 344.839 54.1088C344.839 57.5959 345.776 60.3892 347.651 62.4889C349.563 64.5512 352.113 65.5823 355.3 65.5823Z" fill="white"/>
<path d="M499.359 86.1606C503.521 86.1606 507.158 86.9855 510.27 88.6353C513.382 90.2851 515.782 92.6098 517.469 95.6094C519.194 98.5715 520.056 102.002 520.056 105.902C520.056 109.764 519.194 113.195 517.469 116.194C515.782 119.194 513.364 121.518 510.214 123.168C507.102 124.818 503.484 125.643 499.359 125.643H484.567V86.1606H499.359ZM498.74 117.319C502.377 117.319 505.208 116.325 507.233 114.338C509.258 112.351 510.27 109.539 510.27 105.902C510.27 102.265 509.258 99.4339 507.233 97.4091C505.208 95.3844 502.377 94.372 498.74 94.372H494.185V117.319H498.74Z" fill="white"/>
<path d="M468.013 125.643L459.802 110.739H457.496V125.643H447.879V86.1606H464.02C467.132 86.1606 469.776 86.7043 471.95 87.7917C474.163 88.879 475.812 90.3788 476.9 92.2911C477.987 94.1658 478.531 96.2655 478.531 98.5902C478.531 101.215 477.781 103.558 476.281 105.621C474.819 107.683 472.644 109.145 469.757 110.007L478.868 125.643H468.013ZM457.496 103.933H463.458C465.22 103.933 466.532 103.502 467.395 102.64C468.295 101.777 468.745 100.559 468.745 98.9839C468.745 97.4841 468.295 96.303 467.395 95.4406C466.532 94.5783 465.22 94.1471 463.458 94.1471H457.496V103.933Z" fill="white"/>
<path d="M430.987 118.669H416.252L413.89 125.643H403.822L418.108 86.1606H429.244L443.529 125.643H433.349L430.987 118.669ZM428.513 111.245L423.62 96.7905L418.783 111.245H428.513Z" fill="white"/>
<path d="M402.391 86.1606L388.387 125.643H376.351L362.347 86.1606H372.583L382.369 115.969L392.212 86.1606H402.391Z" fill="white"/>
<path d="M344.515 93.8659V101.852H357.395V109.276H344.515V117.938H359.082V125.643H334.898V86.1606H359.082V93.8659H344.515Z" fill="white"/>
<path d="M317.713 118.219H330.311V125.643H308.095V86.1606H317.713V118.219Z" fill="white"/>
<path d="M277.89 86.1606V109.782C277.89 112.145 278.471 113.963 279.633 115.238C280.796 116.513 282.502 117.15 284.751 117.15C287.001 117.15 288.726 116.513 289.926 115.238C291.126 113.963 291.725 112.145 291.725 109.782V86.1606H301.343V109.726C301.343 113.251 300.593 116.232 299.093 118.669C297.593 121.106 295.569 122.943 293.019 124.181C290.507 125.418 287.695 126.037 284.583 126.037C281.471 126.037 278.677 125.437 276.203 124.237C273.765 122.999 271.834 121.162 270.41 118.725C268.985 116.25 268.272 113.251 268.272 109.726V86.1606H277.89Z" fill="white"/>
<path d="M242.9 126.037C239.188 126.037 235.776 125.175 232.664 123.45C229.589 121.725 227.133 119.325 225.296 116.251C223.496 113.139 222.596 109.652 222.596 105.79C222.596 101.928 223.496 98.4594 225.296 95.3848C227.133 92.3102 229.589 89.9106 232.664 88.1858C235.776 86.461 239.188 85.5986 242.9 85.5986C246.612 85.5986 250.005 86.461 253.08 88.1858C256.192 89.9106 258.629 92.3102 260.391 95.3848C262.191 98.4594 263.091 101.928 263.091 105.79C263.091 109.652 262.191 113.139 260.391 116.251C258.591 119.325 256.154 121.725 253.08 123.45C250.005 125.175 246.612 126.037 242.9 126.037ZM242.9 117.263C246.049 117.263 248.562 116.213 250.436 114.114C252.348 112.014 253.305 109.239 253.305 105.79C253.305 102.303 252.348 99.528 250.436 97.4658C248.562 95.3661 246.049 94.3162 242.9 94.3162C239.713 94.3162 237.163 95.3473 235.251 97.4095C233.376 99.4718 232.439 102.265 232.439 105.79C232.439 109.277 233.376 112.07 235.251 114.17C237.163 116.232 239.713 117.263 242.9 117.263Z" fill="white"/>
<path d="M211.055 105.396C213.342 105.883 215.179 107.027 216.566 108.826C217.954 110.589 218.647 112.613 218.647 114.901C218.647 118.2 217.485 120.825 215.16 122.774C212.873 124.687 209.667 125.643 205.543 125.643H187.151V86.1606H204.924C208.936 86.1606 212.067 87.0793 214.317 88.9165C216.604 90.7538 217.747 93.2472 217.747 96.3968C217.747 98.7215 217.129 100.652 215.891 102.19C214.692 103.727 213.079 104.796 211.055 105.396ZM196.769 102.133H203.068C204.643 102.133 205.843 101.796 206.668 101.121C207.53 100.409 207.961 99.3776 207.961 98.0278C207.961 96.678 207.53 95.6469 206.668 94.9345C205.843 94.2221 204.643 93.8659 203.068 93.8659H196.769V102.133ZM203.855 117.881C205.468 117.881 206.705 117.525 207.567 116.813C208.467 116.063 208.917 114.994 208.917 113.607C208.917 112.22 208.449 111.132 207.511 110.345C206.611 109.557 205.355 109.164 203.743 109.164H196.769V117.881H203.855Z" fill="white"/>
<defs>
<clipPath id="clip0_0_752">
<rect width="165.818" height="160" fill="white"/>
</clipPath>
</defs>
</svg>