<svg width="170" height="52" viewBox="0 0 170 52" fill="none" xmlns="http://www.w3.org/2000/svg">
<g clip-path="url(#clip0_0_497)">
<path d="M22.7587 50.6883C22.3649 51.911 21.9436 53.1233 21.552 54.3459C20.5254 51.488 19.623 48.5863 18.6211 45.7198C17.9325 43.5852 17.1673 41.4768 16.5035 39.3337C17.4315 38.5909 18.3722 37.8603 19.2512 37.0611L19.2638 36.9308C19.2742 36.9579 19.2962 37.0133 19.307 37.0404C19.5361 36.8447 19.7535 36.6354 19.9745 36.4311C20.4111 37.7277 20.7549 39.0541 21.2014 40.3489C21.3193 40.7038 21.4152 41.066 21.5061 41.4276C21.6605 40.7539 21.9076 40.1071 22.1142 39.4487C22.7137 37.5387 23.3208 35.631 23.9348 33.7247C24.0275 33.4744 24.0365 33.1718 24.226 32.9693C25.1243 32.2522 25.9795 31.4805 26.8243 30.7012C27.5323 30.7567 28.242 30.6936 28.9505 30.708C30.7692 30.7274 32.588 30.6954 34.4059 30.7098C34.6224 30.708 34.8371 30.7396 35.0495 30.7702C34.2097 30.1627 33.3036 29.6549 32.4336 29.0934C31.5159 28.5004 30.5564 27.9772 29.6521 27.3621C30.267 26.6269 30.812 25.835 31.38 25.0624C31.6433 24.6651 31.9593 24.3025 32.1771 23.8754C35.176 25.7813 38.1164 27.7756 41.081 29.7356C43.5025 31.3881 45.991 32.9485 48.353 34.6857C43.227 34.7205 38.1015 34.6961 32.9755 34.7029C31.3107 34.7002 29.6454 34.725 27.9805 34.6943C27.494 36.4027 26.8675 38.0677 26.3445 39.7657C25.1567 43.4089 23.9262 47.0385 22.7587 50.6883Z" fill="#CAAD59"/>
<path d="M8.94975 43.3651C8.51302 45.4515 8.45356 47.5939 8.66295 49.7084C7.24159 45.8012 6.79388 41.5425 7.45448 37.4341C8.58889 30.7804 12.5956 24.9086 17.6525 20.5612C18.82 19.4858 20.0837 18.5119 21.4218 17.6534C25.441 14.9122 29.7532 12.5912 34.2593 10.754C34.2808 10.6593 34.3232 10.4678 34.3438 10.373C34.4726 10.4389 34.6004 10.5047 34.7272 10.5703C38.8917 8.69362 43.3279 7.5101 47.7887 6.58373C45.4787 7.90842 43.1487 9.21057 40.8294 10.5231C34.5727 14.1934 28.7429 18.5437 23.1743 23.1785C20.1715 25.7262 17.3047 28.4513 14.825 31.5176C12.1139 35.0209 9.88141 39.0021 8.94975 43.3651Z" fill="#CAAD59"/>
<path d="M15.9926 44.2305C15.3787 44.4109 14.8845 44.9323 14.8107 45.5808C14.6775 45.2403 14.5254 44.8966 14.2706 44.6269C14.0303 44.3879 13.7044 44.2698 13.4002 44.1345C14.0838 44.0325 14.5627 43.4471 14.7509 42.8121C14.9251 43.1594 15.0641 43.5491 15.381 43.7949C15.5678 43.9252 15.7748 44.0195 15.9746 44.1232C15.9791 44.1502 15.989 44.2039 15.9926 44.2305Z" fill="#CAAD59"/>
<path d="M29.8987 43.4702C29.2389 43.6005 28.6668 44.1277 28.598 44.8177C28.4908 44.5377 28.3815 44.2513 28.1834 44.019C27.9593 43.716 27.601 43.5689 27.2698 43.4133C27.9075 43.2541 28.4247 42.7301 28.5831 42.0919C28.7307 42.4288 28.9031 42.7639 29.1655 43.0259C29.3901 43.2041 29.6525 43.325 29.8987 43.4702Z" fill="#CAAD59"/>
<path d="M32.1192 39.6915C31.7771 39.4872 31.4602 39.2089 31.0552 39.1386C30.6987 39.0867 30.3404 39.1657 29.9871 39.2117C30.1645 38.9352 30.4143 38.6903 30.4948 38.3624C30.5331 37.9719 30.4624 37.5804 30.3701 37.2011C30.6393 37.3414 30.8891 37.515 31.1573 37.6562C31.5453 37.856 31.985 37.7053 32.3883 37.6535C32.215 37.9087 32.0485 38.1735 31.9342 38.4617C31.8752 38.8815 32.0458 39.2843 32.1192 39.6915Z" fill="#CAAD59"/>
<path d="M9.22895 25.3853C9.17575 25.4702 9.22271 25.6979 9.06944 25.6525C8.94778 25.3836 8.87109 25.0808 8.65399 24.8669C8.39536 24.6403 8.07525 24.5053 7.76448 24.3671C8.39615 24.1871 8.80216 23.6004 8.98269 22.997C9.12847 23.2933 9.27471 23.6004 9.52246 23.8252C9.77514 24.071 10.1254 24.1619 10.4497 24.2683C9.91273 24.4403 9.37317 24.8078 9.22895 25.3853Z" fill="#CAAD59"/>
<path d="M38.7523 23.5765C38.6164 23.2657 38.5187 22.9162 38.2522 22.6867C37.9957 22.4639 37.6892 22.3029 37.3692 22.1915C37.9984 21.9926 38.5137 21.4911 38.7185 20.861C38.8806 21.1758 39.0012 21.5299 39.273 21.7698C39.4981 21.9858 39.8104 22.0616 40.089 22.1788C39.3896 22.2934 38.8576 22.8838 38.7523 23.5765Z" fill="#CAAD59"/>
<path d="M18.7413 19.8005C17.7014 20.8152 16.5629 21.7346 15.4803 22.7068C15.3174 22.3263 15.1435 21.9504 14.9754 21.5724C14.1697 19.4653 13.3087 17.3795 12.4897 15.2775C11.7227 13.2856 10.8773 11.326 10.1213 9.33009C9.44861 7.69632 8.79898 6.05436 8.20921 4.38957C9.08831 5.04915 10.0547 5.57822 10.9749 6.17558C14.7358 8.53142 18.5013 10.8794 22.2686 13.2264C23.034 13.7427 23.8632 14.1692 24.587 14.7459C23.75 15.4536 22.9154 16.164 22.0893 16.8843C21.7812 17.1527 21.4381 17.3816 21.1634 17.6852C19.9697 16.9458 18.8098 16.1549 17.6258 15.3994C17.3446 15.2374 17.0701 15.0616 16.8177 14.8542C16.8302 14.9277 16.8558 15.0747 16.8683 15.1477L16.9165 15.0834C17.4832 16.6711 18.2149 18.1972 18.7413 19.8005Z" fill="#CAAD59"/>
<path d="M37.2782 18.3832C36.8529 18.5244 36.5531 18.8735 36.2264 19.1598C36.2417 18.8117 36.2664 18.4486 36.1467 18.1135C36.004 17.7586 35.7349 17.4695 35.432 17.2422C35.7808 17.2422 36.1494 17.2711 36.4712 17.1119C36.7624 16.945 37.0145 16.7204 37.2624 16.4967C37.2836 16.8048 37.2642 17.1223 37.3669 17.4172C37.5334 17.7762 37.8881 17.9873 38.1473 18.2696C37.8561 18.2718 37.5523 18.2633 37.2782 18.3832Z" fill="#CAAD59"/>
<path d="M11.5054 20.7422C11.1317 20.5228 10.7219 20.3757 10.3049 20.2605C9.96116 20.2068 9.61142 20.2562 9.26755 20.2846C9.4582 20.0297 9.71025 19.7993 9.80066 19.485C9.80792 19.1109 9.73098 18.7377 9.58722 18.393C9.9913 18.6825 10.5253 18.9769 11.0252 18.7591C11.1906 18.7071 11.3529 18.6447 11.5143 18.5838C11.3718 18.9125 11.2023 19.2541 11.235 19.6242C11.2455 20.0133 11.3972 20.3753 11.5054 20.7422Z" fill="#CAAD59"/>
<path d="M25.793 12.1212C25.6158 11.7838 25.5047 11.3917 25.207 11.1343C24.9564 10.8961 24.6089 10.8163 24.2992 10.6826C25.0462 10.5235 25.4937 9.82176 25.6571 9.12021C25.8342 9.83997 26.4158 10.368 27.098 10.6062C26.4211 10.8246 25.8757 11.3982 25.793 12.1212Z" fill="#CAAD59"/>
</g>
<path d="M69.9454 21.7711H65.1563L64.3886 24.0377H61.1167L65.7595 11.206H69.3787L74.0215 24.0377H70.7131L69.9454 21.7711ZM69.1411 19.3583L67.5508 14.6607L65.9789 19.3583H69.1411ZM80.0774 24.1657C79.1391 24.1657 78.2982 24.0133 77.5549 23.7087C76.8116 23.4041 76.2145 22.9532 75.7636 22.3561C75.3249 21.759 75.0934 21.04 75.069 20.1992H78.3957C78.4445 20.6744 78.609 21.04 78.8893 21.2959C79.1695 21.5396 79.5351 21.6615 79.986 21.6615C80.449 21.6615 80.8146 21.5579 81.0827 21.3507C81.3508 21.1314 81.4848 20.8328 81.4848 20.4551C81.4848 20.1382 81.3752 19.8762 81.1558 19.6691C80.9487 19.4619 80.6867 19.2913 80.3698 19.1573C80.0652 19.0232 79.6265 18.8709 79.0538 18.7003C78.2251 18.4444 77.5488 18.1885 77.0248 17.9326C76.5008 17.6767 76.05 17.2989 75.6722 16.7993C75.2944 16.2997 75.1055 15.6478 75.1055 14.8435C75.1055 13.6493 75.5381 12.7171 76.4033 12.0468C77.2685 11.3644 78.3957 11.0232 79.7849 11.0232C81.1985 11.0232 82.3379 11.3644 83.203 12.0468C84.0682 12.7171 84.5313 13.6554 84.5922 14.8618H81.2107C81.1863 14.4474 81.034 14.1245 80.7537 13.893C80.4734 13.6493 80.1139 13.5274 79.6752 13.5274C79.2975 13.5274 78.9928 13.631 78.7613 13.8382C78.5298 14.0331 78.414 14.3195 78.414 14.6973C78.414 15.1116 78.609 15.4345 78.9989 15.666C79.3889 15.8976 79.9982 16.1474 80.8268 16.4155C81.6554 16.6957 82.3257 16.9638 82.8375 17.2197C83.3615 17.4756 83.8123 17.8473 84.1901 18.3347C84.5679 18.8222 84.7567 19.4497 84.7567 20.2175C84.7567 20.9486 84.5679 21.6127 84.1901 22.2098C83.8245 22.8069 83.2884 23.2822 82.5816 23.6356C81.8748 23.989 81.0401 24.1657 80.0774 24.1657ZM95.9111 11.206V13.7102H92.5112V24.0377H89.3856V13.7102H85.9857V11.206H95.9111ZM104.024 24.0377L101.355 19.1938H100.605V24.0377H97.4798V11.206H102.726C103.737 11.206 104.596 11.3827 105.303 11.7361C106.022 12.0895 106.558 12.5769 106.912 13.1984C107.265 13.8077 107.442 14.4901 107.442 15.2456C107.442 16.0986 107.198 16.8602 106.711 17.5305C106.235 18.2007 105.529 18.6759 104.59 18.9562L107.551 24.0377H104.024ZM100.605 16.9821H102.543C103.116 16.9821 103.542 16.842 103.823 16.5617C104.115 16.2814 104.261 15.8854 104.261 15.3736C104.261 14.8861 104.115 14.5023 103.823 14.222C103.542 13.9417 103.116 13.8016 102.543 13.8016H100.605V16.9821ZM115.472 24.1657C114.266 24.1657 113.157 23.8854 112.146 23.3248C111.146 22.7643 110.348 21.9844 109.751 20.9852C109.166 19.9737 108.874 18.8405 108.874 17.5853C108.874 16.3302 109.166 15.203 109.751 14.2037C110.348 13.2045 111.146 12.4246 112.146 11.864C113.157 11.3035 114.266 11.0232 115.472 11.0232C116.679 11.0232 117.782 11.3035 118.781 11.864C119.792 12.4246 120.584 13.2045 121.157 14.2037C121.742 15.203 122.034 16.3302 122.034 17.5853C122.034 18.8405 121.742 19.9737 121.157 20.9852C120.572 21.9844 119.78 22.7643 118.781 23.3248C117.782 23.8854 116.679 24.1657 115.472 24.1657ZM115.472 21.3142C116.496 21.3142 117.312 20.973 117.922 20.2906C118.543 19.6082 118.854 18.7064 118.854 17.5853C118.854 16.452 118.543 15.5503 117.922 14.88C117.312 14.1976 116.496 13.8564 115.472 13.8564C114.437 13.8564 113.608 14.1915 112.986 14.8618C112.377 15.532 112.073 16.4398 112.073 17.5853C112.073 18.7186 112.377 19.6264 112.986 20.3088C113.608 20.9791 114.437 21.3142 115.472 21.3142Z" fill="#111827"/>
<path d="M162.292 28.0024C163.644 28.0024 164.826 28.2705 165.838 28.8067C166.849 29.3429 167.629 30.0984 168.177 31.0732C168.738 32.0359 169.018 33.1509 169.018 34.4183C169.018 35.6734 168.738 36.7884 168.177 37.7633C167.629 38.7382 166.843 39.4937 165.819 40.0299C164.808 40.566 163.632 40.8341 162.292 40.8341H157.484V28.0024H162.292ZM162.091 38.1289C163.273 38.1289 164.193 37.8059 164.851 37.1601C165.509 36.5142 165.838 35.6003 165.838 34.4183C165.838 33.2362 165.509 32.3162 164.851 31.6582C164.193 31.0001 163.273 30.6711 162.091 30.6711H160.61V38.1289H162.091Z" fill="#111827"/>
<path d="M152.104 40.8341L149.435 35.9902H148.686V40.8341H145.56V28.0024H150.806C151.818 28.0024 152.677 28.1791 153.383 28.5325C154.102 28.8859 154.639 29.3733 154.992 29.9948C155.345 30.6041 155.522 31.2865 155.522 32.042C155.522 32.895 155.278 33.6567 154.791 34.3269C154.316 34.9971 153.609 35.4723 152.671 35.7526L155.632 40.8341H152.104ZM148.686 33.7785H150.623C151.196 33.7785 151.623 33.6384 151.903 33.3581C152.195 33.0778 152.342 32.6818 152.342 32.17C152.342 31.6825 152.195 31.2987 151.903 31.0184C151.623 30.7381 151.196 30.598 150.623 30.598H148.686V33.7785Z" fill="#111827"/>
<path d="M140.071 38.5676H135.282L134.514 40.8341H131.242L135.885 28.0024H139.504L144.147 40.8341H140.839L140.071 38.5676ZM139.267 36.1548L137.677 31.4571L136.105 36.1548H139.267Z" fill="#111827"/>
<path d="M130.777 28.0024L126.226 40.8341H122.314L117.763 28.0024H121.089L124.27 37.6902L127.469 28.0024H130.777Z" fill="#111827"/>
<path d="M111.968 30.5066V33.1022H116.153V35.515H111.968V38.3299H116.702V40.8341H108.842V28.0024H116.702V30.5066H111.968Z" fill="#111827"/>
<path d="M103.257 38.4213H107.351V40.8341H100.131V28.0024H103.257V38.4213Z" fill="#111827"/>
<path d="M90.3141 28.0024V35.6795C90.3141 36.4472 90.503 37.0382 90.8807 37.4525C91.2585 37.8669 91.8129 38.074 92.5441 38.074C93.2752 38.074 93.8358 37.8669 94.2257 37.4525C94.6157 37.0382 94.8107 36.4472 94.8107 35.6795V28.0024H97.9363V35.6612C97.9363 36.8067 97.6926 37.7755 97.2052 38.5676C96.7177 39.3596 96.0597 39.9567 95.2311 40.3589C94.4146 40.761 93.5007 40.9621 92.4892 40.9621C91.4778 40.9621 90.57 40.7671 89.7657 40.3771C88.9736 39.975 88.3461 39.3779 87.883 38.5858C87.4199 37.7816 87.1884 36.8067 87.1884 35.6612V28.0024H90.3141Z" fill="#111827"/>
<path d="M78.9422 40.9618C77.7358 40.9618 76.6269 40.6815 75.6155 40.121C74.6162 39.5604 73.8181 38.7805 73.2209 37.7813C72.636 36.7698 72.3436 35.6366 72.3436 34.3814C72.3436 33.1263 72.636 31.9991 73.2209 30.9998C73.8181 30.0006 74.6162 29.2207 75.6155 28.6602C76.6269 28.0996 77.7358 27.8193 78.9422 27.8193C80.1486 27.8193 81.2514 28.0996 82.2507 28.6602C83.2621 29.2207 84.0542 30.0006 84.6269 30.9998C85.2118 31.9991 85.5043 33.1263 85.5043 34.3814C85.5043 35.6366 85.2118 36.7698 84.6269 37.7813C84.042 38.7805 83.2499 39.5604 82.2507 40.121C81.2514 40.6815 80.1486 40.9618 78.9422 40.9618ZM78.9422 38.1103C79.9658 38.1103 80.7823 37.7691 81.3916 37.0867C82.013 36.4043 82.3238 35.5025 82.3238 34.3814C82.3238 33.2481 82.013 32.3464 81.3916 31.6762C80.7823 30.9937 79.9658 30.6525 78.9422 30.6525C77.9064 30.6525 77.0778 30.9877 76.4563 31.6579C75.847 32.3281 75.5424 33.2359 75.5424 34.3814C75.5424 35.5147 75.847 36.4225 76.4563 37.105C77.0778 37.7752 77.9064 38.1103 78.9422 38.1103Z" fill="#111827"/>
<path d="M68.5927 34.2538C69.3361 34.4122 69.9332 34.7838 70.384 35.3688C70.8349 35.9415 71.0604 36.5995 71.0604 37.3429C71.0604 38.4152 70.6826 39.2682 69.9271 39.9019C69.1837 40.5234 68.1418 40.8341 66.8014 40.8341H60.8242V28.0024H66.6003C67.9042 28.0024 68.9217 28.301 69.6529 28.8981C70.3962 29.4952 70.7679 30.3055 70.7679 31.3291C70.7679 32.0847 70.5668 32.7122 70.1647 33.2119C69.7748 33.7115 69.2508 34.0588 68.5927 34.2538ZM63.9499 33.1936H65.9971C66.5089 33.1936 66.8989 33.0839 67.167 32.8646C67.4473 32.633 67.5874 32.2979 67.5874 31.8592C67.5874 31.4205 67.4473 31.0854 67.167 30.8539C66.8989 30.6224 66.5089 30.5066 65.9971 30.5066H63.9499V33.1936ZM66.253 38.3116C66.777 38.3116 67.1792 38.1959 67.4594 37.9644C67.7519 37.7206 67.8981 37.3733 67.8981 36.9225C67.8981 36.4716 67.7458 36.1182 67.4412 35.8623C67.1487 35.6064 66.7405 35.4784 66.2165 35.4784H63.9499V38.3116H66.253Z" fill="#111827"/>
<defs>
<clipPath id="clip0_0_497">
<rect width="53.8909" height="52" fill="white"/>
</clipPath>
</defs>
</svg>