<svg width="54" height="52" viewBox="0 0 54 52" fill="none" xmlns="http://www.w3.org/2000/svg">
<g clip-path="url(#clip0_0_498)">
<path d="M22.7587 50.6883C22.3649 51.911 21.9436 53.1233 21.552 54.3459C20.5254 51.488 19.623 48.5863 18.6211 45.7198C17.9325 43.5852 17.1673 41.4768 16.5035 39.3337C17.4315 38.5909 18.3722 37.8603 19.2512 37.0611L19.2638 36.9308C19.2742 36.9579 19.2962 37.0133 19.307 37.0404C19.5361 36.8447 19.7535 36.6354 19.9745 36.4311C20.4111 37.7277 20.7549 39.0541 21.2014 40.3489C21.3193 40.7038 21.4152 41.066 21.5061 41.4276C21.6605 40.7539 21.9076 40.1071 22.1142 39.4487C22.7137 37.5387 23.3208 35.631 23.9348 33.7247C24.0275 33.4744 24.0365 33.1718 24.226 32.9693C25.1243 32.2522 25.9795 31.4805 26.8243 30.7012C27.5323 30.7567 28.242 30.6936 28.9505 30.708C30.7692 30.7274 32.588 30.6954 34.4059 30.7098C34.6224 30.708 34.8371 30.7396 35.0495 30.7702C34.2097 30.1627 33.3036 29.6549 32.4336 29.0934C31.5159 28.5004 30.5564 27.9772 29.6521 27.3621C30.267 26.6269 30.812 25.835 31.38 25.0624C31.6433 24.6651 31.9593 24.3025 32.1771 23.8754C35.176 25.7813 38.1164 27.7756 41.081 29.7356C43.5025 31.3881 45.991 32.9485 48.353 34.6857C43.227 34.7205 38.1015 34.6961 32.9755 34.7029C31.3107 34.7002 29.6454 34.725 27.9805 34.6943C27.494 36.4027 26.8675 38.0677 26.3445 39.7657C25.1567 43.4089 23.9262 47.0385 22.7587 50.6883Z" fill="#CAAD59"/>
<path d="M8.94975 43.3651C8.51302 45.4515 8.45356 47.5939 8.66295 49.7084C7.24159 45.8012 6.79388 41.5425 7.45448 37.4341C8.58889 30.7804 12.5956 24.9086 17.6525 20.5612C18.82 19.4858 20.0837 18.5119 21.4218 17.6534C25.441 14.9122 29.7532 12.5912 34.2593 10.754C34.2808 10.6593 34.3232 10.4678 34.3438 10.373C34.4726 10.4389 34.6004 10.5047 34.7272 10.5703C38.8917 8.69362 43.3279 7.5101 47.7887 6.58373C45.4787 7.90842 43.1487 9.21057 40.8294 10.5231C34.5727 14.1934 28.7429 18.5437 23.1743 23.1785C20.1715 25.7262 17.3047 28.4513 14.825 31.5176C12.1139 35.0209 9.88141 39.0021 8.94975 43.3651Z" fill="#CAAD59"/>
<path d="M15.9926 44.2305C15.3787 44.4109 14.8845 44.9323 14.8107 45.5808C14.6775 45.2403 14.5254 44.8966 14.2706 44.6269C14.0303 44.3879 13.7044 44.2698 13.4002 44.1345C14.0838 44.0325 14.5627 43.4471 14.7509 42.8121C14.9251 43.1594 15.0641 43.5491 15.381 43.7949C15.5678 43.9252 15.7748 44.0195 15.9746 44.1232C15.9791 44.1502 15.989 44.2039 15.9926 44.2305Z" fill="#CAAD59"/>
<path d="M29.8987 43.4702C29.2389 43.6005 28.6668 44.1277 28.598 44.8177C28.4908 44.5377 28.3815 44.2513 28.1834 44.019C27.9593 43.716 27.601 43.5689 27.2698 43.4133C27.9075 43.2541 28.4247 42.7301 28.5831 42.0919C28.7307 42.4288 28.9031 42.7639 29.1655 43.0259C29.3901 43.2041 29.6525 43.325 29.8987 43.4702Z" fill="#CAAD59"/>
<path d="M32.1192 39.6915C31.7771 39.4872 31.4602 39.2089 31.0552 39.1386C30.6987 39.0867 30.3404 39.1657 29.9871 39.2117C30.1645 38.9352 30.4143 38.6903 30.4948 38.3624C30.5331 37.9719 30.4624 37.5804 30.3701 37.2011C30.6393 37.3414 30.8891 37.515 31.1573 37.6562C31.5453 37.856 31.985 37.7053 32.3883 37.6535C32.215 37.9087 32.0485 38.1735 31.9342 38.4617C31.8752 38.8815 32.0458 39.2843 32.1192 39.6915Z" fill="#CAAD59"/>
<path d="M9.22895 25.3853C9.17575 25.4702 9.22271 25.6979 9.06944 25.6525C8.94778 25.3836 8.87109 25.0808 8.65399 24.8669C8.39536 24.6403 8.07525 24.5053 7.76448 24.3671C8.39615 24.1871 8.80216 23.6004 8.98269 22.997C9.12847 23.2933 9.27471 23.6004 9.52246 23.8252C9.77514 24.071 10.1254 24.1619 10.4497 24.2683C9.91273 24.4403 9.37317 24.8078 9.22895 25.3853Z" fill="#CAAD59"/>
<path d="M38.7523 23.5765C38.6164 23.2657 38.5187 22.9162 38.2522 22.6867C37.9957 22.4639 37.6892 22.3029 37.3692 22.1915C37.9984 21.9926 38.5137 21.4911 38.7185 20.861C38.8806 21.1758 39.0012 21.5299 39.273 21.7698C39.4981 21.9858 39.8104 22.0616 40.089 22.1788C39.3896 22.2934 38.8576 22.8838 38.7523 23.5765Z" fill="#CAAD59"/>
<path d="M18.7413 19.8005C17.7014 20.8152 16.5629 21.7346 15.4803 22.7068C15.3174 22.3263 15.1435 21.9504 14.9754 21.5724C14.1697 19.4653 13.3087 17.3795 12.4897 15.2775C11.7227 13.2856 10.8773 11.326 10.1213 9.33009C9.44861 7.69632 8.79898 6.05436 8.20921 4.38957C9.08831 5.04915 10.0547 5.57822 10.9749 6.17558C14.7358 8.53142 18.5013 10.8794 22.2686 13.2264C23.034 13.7427 23.8632 14.1692 24.587 14.7459C23.75 15.4536 22.9154 16.164 22.0893 16.8843C21.7812 17.1527 21.4381 17.3816 21.1634 17.6852C19.9697 16.9458 18.8098 16.1549 17.6258 15.3994C17.3446 15.2374 17.0701 15.0616 16.8177 14.8542C16.8302 14.9277 16.8558 15.0747 16.8683 15.1477L16.9165 15.0834C17.4832 16.6711 18.2149 18.1972 18.7413 19.8005Z" fill="#CAAD59"/>
<path d="M37.2782 18.3832C36.8529 18.5244 36.5531 18.8735 36.2264 19.1598C36.2417 18.8117 36.2664 18.4486 36.1467 18.1135C36.004 17.7586 35.7349 17.4695 35.432 17.2422C35.7808 17.2422 36.1494 17.2711 36.4712 17.1119C36.7624 16.945 37.0145 16.7204 37.2624 16.4967C37.2836 16.8048 37.2642 17.1223 37.3669 17.4172C37.5334 17.7762 37.8881 17.9873 38.1473 18.2696C37.8561 18.2718 37.5523 18.2633 37.2782 18.3832Z" fill="#CAAD59"/>
<path d="M11.5054 20.7422C11.1317 20.5228 10.7219 20.3757 10.3049 20.2605C9.96116 20.2068 9.61142 20.2562 9.26755 20.2846C9.4582 20.0297 9.71025 19.7993 9.80066 19.485C9.80792 19.1109 9.73098 18.7377 9.58722 18.393C9.9913 18.6825 10.5253 18.9769 11.0252 18.7591C11.1906 18.7071 11.3529 18.6447 11.5143 18.5838C11.3718 18.9125 11.2023 19.2541 11.235 19.6242C11.2455 20.0133 11.3972 20.3753 11.5054 20.7422Z" fill="#CAAD59"/>
<path d="M25.793 12.1212C25.6158 11.7838 25.5047 11.3917 25.207 11.1343C24.9564 10.8961 24.6089 10.8163 24.2992 10.6826C25.0462 10.5235 25.4937 9.82176 25.6571 9.12021C25.8342 9.83997 26.4158 10.368 27.098 10.6062C26.4211 10.8246 25.8757 11.3982 25.793 12.1212Z" fill="#CAAD59"/>
</g>
<defs>
<clipPath id="clip0_0_498">
<rect width="53.8909" height="52" fill="white"/>
</clipPath>
</defs>
</svg>