<svg width="50" height="50" viewBox="0 0 50 50" fill="none" xmlns="http://www.w3.org/2000/svg">
<g clip-path="url(#clip0_0_483)">
<path d="M48.5352 7.32422H1.46484V48.5352H48.5352V7.32422Z" stroke="white" stroke-width="2" stroke-miterlimit="10"/>
<path d="M48.5352 1.46484H1.46484V7.32422H48.5352V1.46484Z" stroke="white" stroke-width="2" stroke-miterlimit="10"/>
<path d="M7.32422 1.46484V7.32422" stroke="white" stroke-width="3.5" stroke-miterlimit="10"/>
<path d="M13.1836 1.46484V7.32422" stroke="white" stroke-width="3.5" stroke-miterlimit="10"/>
<path d="M19.043 1.46484V7.32422" stroke="white" stroke-width="3.5" stroke-miterlimit="10"/>
<path d="M27.3759 13.8714L27.603 14.0024H27.8652C29.5628 14.0024 31.1315 14.9081 31.9802 16.3783L32.1113 16.6053L32.3383 16.7364C33.8085 17.5852 34.7142 19.1539 34.7142 20.8514V21.1136L34.8452 21.3407C35.6941 22.8109 35.6941 24.6222 34.8452 26.0924L34.7142 26.3194V26.5816C34.7142 28.2793 33.8085 29.8479 32.3383 30.6967L32.1113 30.8277L31.9801 31.0548C31.1313 32.525 29.5626 33.4306 27.8651 33.4306H27.6029L27.3758 33.5617C25.9056 34.4105 24.0943 34.4105 22.6241 33.5617L22.3971 33.4306H22.1349C20.4372 33.4306 18.8686 32.525 18.0198 31.0548L17.8888 30.8277L17.6617 30.6967C16.1915 29.8478 15.2859 28.2792 15.2859 26.5816V26.3194L15.1548 26.0924C14.306 24.6221 14.306 22.8108 15.1548 21.3407L15.2859 21.1136V20.8514C15.2859 19.1538 16.1915 17.5851 17.6617 16.7364L17.8888 16.6053L18.0198 16.3783C18.8687 14.9081 20.4373 14.0024 22.1349 14.0024H22.3971L22.6241 13.8714C24.0944 13.0225 25.9057 13.0225 27.3759 13.8714Z" stroke="white" stroke-width="2" stroke-miterlimit="10"/>
<path d="M20.5511 23.4124L23.7197 26.5809L29.4489 20.8518" stroke="white" stroke-width="2" stroke-miterlimit="10"/>
<path d="M30.5965 32.4633L33.2088 40.8897L30.0996 40.7547L27.6121 42.6247L24.9999 34.1981" stroke="white" stroke-width="2" stroke-miterlimit="10"/>
<path d="M19.4034 32.4633L16.7911 40.8897L19.9003 40.7547L22.3878 42.6247L25 34.1981" stroke="white" stroke-width="2" stroke-miterlimit="10"/>
</g>
<defs>
<clipPath id="clip0_0_483">
<rect width="50" height="50" fill="white"/>
</clipPath>
</defs>
</svg>