<svg width="50" height="50" viewBox="0 0 50 50" fill="none" xmlns="http://www.w3.org/2000/svg">
<g clip-path="url(#clip0_0_457)">
<mask id="mask0_0_457" style="mask-type:luminance" maskUnits="userSpaceOnUse" x="0" y="0" width="51" height="51">
<path d="M0.003479 0.00348282H50.0035V50.0035H0.003479V0.00348282Z" fill="white"/>
</mask>
<g mask="url(#mask0_0_457)">
<path d="M14.2034 24.8632C13.5459 26.7081 13.1878 28.6952 13.1878 30.7659C13.1878 40.4741 21.0577 48.5394 30.7659 48.5394H46.8108L42.8259 43.9045C46.3294 40.6912 48.5393 35.8947 48.5393 30.7659C48.5393 21.0578 40.4741 13.1878 30.7659 13.1878C28.6952 13.1878 26.7081 13.5459 24.8632 14.2034" stroke="white" stroke-width="2" stroke-miterlimit="10"/>
<path d="M24.9065 13.1879C24.9065 19.66 19.6598 24.9067 13.1878 24.9067C6.7157 24.9067 1.46902 19.66 1.46902 13.1879C1.46902 6.71586 6.7157 1.46918 13.1878 1.46918C19.6598 1.46918 24.9065 6.71586 24.9065 13.1879Z" stroke="white" stroke-width="2" stroke-miterlimit="10"/>
<path d="M16.1175 10.2582C16.1175 11.8763 14.8057 13.1879 13.1878 13.1879C11.5698 13.1879 10.2581 11.8763 10.2581 10.2582C10.2581 8.64017 11.5698 7.32855 13.1878 7.32855C14.8057 7.32855 16.1175 8.64017 16.1175 10.2582Z" stroke="white" stroke-width="2" stroke-miterlimit="10"/>
<path d="M7.32867 23.337V21.9751C7.32867 18.739 9.95201 16.1157 13.188 16.1157C16.4241 16.1157 19.0474 18.739 19.0474 21.9751V23.337" stroke="white" stroke-width="2" stroke-miterlimit="10"/>
</g>
</g>
<defs>
<clipPath id="clip0_0_457">
<rect width="50" height="50" fill="white"/>
</clipPath>
</defs>
</svg>