<svg width="50" height="50" viewBox="0 0 50 50" fill="none" xmlns="http://www.w3.org/2000/svg">
<path d="M46.489 21.7992C46.2976 16.3453 44.089 11.2453 40.2109 7.3672C36.1461 3.30157 30.7437 1.06329 25 1.06329C13.3992 1.06329 3.92029 10.2969 3.51169 21.7992C1.74138 22.5859 0.502319 24.3578 0.502319 26.4172V32.0906C0.502319 34.8766 2.76873 37.1438 5.55544 37.1438C7.35857 37.1438 8.82498 35.6774 8.82498 33.8742V24.6328C8.82498 22.9399 7.52654 21.5594 5.87576 21.3953C6.48513 11.3742 14.8273 3.40704 25 3.40704C30.1187 3.40704 34.932 5.40236 38.5547 9.02501C41.8812 12.3516 43.8281 16.6875 44.1211 21.3961C42.4718 21.5617 41.1758 22.9414 41.1758 24.6328V33.8735C41.1758 35.5805 42.4945 36.9695 44.1648 37.1141V39.4492C44.1648 42.0789 42.025 44.218 39.3953 44.218H35.8633C35.6898 43.7227 35.4179 43.2649 35.0367 42.8852C34.3687 42.2141 33.4781 41.8445 32.5297 41.8445H28.889C28.3664 41.8445 27.8648 41.9555 27.4054 42.1695C26.1523 42.7453 25.3429 44.0094 25.3429 45.3899C25.3429 46.3383 25.7125 47.2289 26.382 47.8953C27.0515 48.5664 27.9422 48.936 28.889 48.936H32.5297C34.039 48.936 35.3695 47.9602 35.8656 46.5617H39.3953C43.3179 46.5617 46.5086 43.3711 46.5086 39.4492V36.6969C48.2679 35.9055 49.4976 34.1399 49.4976 32.0891V26.4156C49.4976 24.3578 48.2586 22.5859 46.489 21.7992ZM6.48044 24.6328V33.8735C6.48044 34.3836 6.0656 34.7992 5.55466 34.7992C4.06091 34.7992 2.84529 33.5836 2.84529 32.0899V26.4164C2.84529 24.9219 4.06091 23.707 5.55466 23.707C6.0656 23.707 6.48044 24.1227 6.48044 24.6328ZM33.7054 45.6414C33.589 46.193 33.0937 46.5938 32.5289 46.5938H28.8883C28.5679 46.5938 28.2672 46.4688 28.0375 46.2391C27.8109 46.0133 27.6859 45.7117 27.6859 45.3914C27.6859 44.9235 27.9601 44.4961 28.3898 44.2985C28.5429 44.2266 28.7109 44.1899 28.8883 44.1899H32.5289C32.8492 44.1899 33.15 44.3141 33.3789 44.5438C33.6054 44.7695 33.7304 45.0711 33.7304 45.3914C33.7312 45.4774 33.7219 45.5633 33.7054 45.6414ZM47.1539 32.0899C47.1539 33.5836 45.9383 34.7992 44.4445 34.7992C43.9343 34.7992 43.5187 34.3844 43.5187 33.8735V24.6328C43.5187 24.1227 43.9336 23.707 44.4445 23.707C45.9383 23.707 47.1539 24.9227 47.1539 26.4164V32.0899Z" fill="white"/>
<path d="M32.5882 32.4937C35.3265 32.4937 37.5539 30.2656 37.5539 27.5281V17.4101C37.5539 16.0867 37.0367 14.8398 36.0976 13.9008C35.1585 12.9617 33.9125 12.4445 32.5882 12.4445H17.4117C14.6734 12.4445 12.446 14.6719 12.446 17.4101V27.5281C12.446 30.2664 14.6734 32.4937 17.4117 32.4937H17.5046V35.1156C17.5046 36.1156 18.1007 37.0031 19.0226 37.3773C19.3203 37.4969 19.6296 37.5562 19.9359 37.5562C20.5742 37.5562 21.196 37.3031 21.6515 36.832L26.0132 32.4937H32.5882ZM24.7046 30.4906L19.9843 35.1851C19.9632 35.207 19.9476 35.2234 19.9031 35.2039C19.8492 35.182 19.8492 35.1469 19.8492 35.1156V31.3219C19.8492 30.675 19.325 30.15 18.6773 30.15H17.4125C15.9664 30.15 14.7906 28.9734 14.7906 27.5281V17.4101C14.7906 15.9641 15.9664 14.7883 17.4125 14.7883H32.589C33.2875 14.7883 33.9445 15.0617 34.4414 15.5578C34.9382 16.0547 35.2109 16.7125 35.2109 17.4101V27.5281C35.2109 28.9742 34.0343 30.15 32.589 30.15H25.5312C25.221 30.15 24.9242 30.2726 24.7046 30.4906Z" fill="white"/>
<path d="M19.307 20.9274C18.3539 20.9274 17.5781 21.7039 17.5781 22.6563C17.5781 23.6086 18.3547 24.3852 19.307 24.3852C20.2609 24.3852 21.0375 23.6086 21.0375 22.6563C21.0375 21.7039 20.2617 20.9274 19.307 20.9274Z" fill="white"/>
<path d="M24.9992 20.9274C24.046 20.9274 23.2703 21.7039 23.2703 22.6563C23.2703 23.6086 24.0468 24.3852 24.9992 24.3852C25.9539 24.3852 26.7296 23.6086 26.7296 22.6563C26.7296 21.7039 25.9539 20.9274 24.9992 20.9274Z" fill="white"/>
<path d="M30.6914 20.9274C29.7383 20.9274 28.9625 21.7039 28.9625 22.6563C28.9625 23.6086 29.7391 24.3852 30.6914 24.3852C31.6453 24.3852 32.4219 23.6086 32.4219 22.6563C32.4219 21.7039 31.6453 20.9274 30.6914 20.9274Z" fill="white"/>
</svg>