<svg width="20" height="20" viewBox="0 0 20 20" fill="none" xmlns="http://www.w3.org/2000/svg">
<g clip-path="url(#clip0_0_791)">
<path d="M9.99832 18.335C14.6017 18.335 18.3333 14.6032 18.3333 10C18.3333 5.39672 14.6017 1.66504 9.99832 1.66504C5.39507 1.66504 1.66339 5.39672 1.66339 10C1.66339 11.5741 2.02503 12.9149 2.78338 14.1708L1.66487 18.3333L5.80706 17.2217C7.06788 17.9885 8.41482 18.335 9.99832 18.335Z" stroke="white" stroke-width="1.5" stroke-linejoin="round"/>
<path d="M7.5 10H10.6398M7.5 10V6.25H10.6398C11.6672 6.25 12.5 7.16986 12.5 8.09033C12.5 9.01083 11.6672 10 10.6398 10M7.5 10V13.75H10.6398C11.6672 13.75 12.5 12.8647 12.5 11.9442C12.5 11.0237 11.6672 10 10.6398 10" stroke="white" stroke-width="1.5" stroke-linejoin="round"/>
</g>
<defs>
<clipPath id="clip0_0_791">
<rect width="20" height="20" fill="white"/>
</clipPath>
</defs>
</svg>