<svg width="20" height="20" viewBox="0 0 20 20" fill="none" xmlns="http://www.w3.org/2000/svg">
<path d="M5.83331 8.3335V14.1668" stroke="white" stroke-width="1.5" stroke-linecap="round" stroke-linejoin="round"/>
<path d="M9.16669 10.8335V14.1668M9.16669 10.8335C9.16669 9.45275 10.2859 8.3335 11.6667 8.3335C13.0474 8.3335 14.1667 9.45275 14.1667 10.8335V14.1668M9.16669 10.8335V8.3335" stroke="white" stroke-width="1.5" stroke-linecap="round" stroke-linejoin="round"/>
<path d="M5.84001 5.8335H5.83252" stroke="white" stroke-width="2" stroke-linecap="round" stroke-linejoin="round"/>
<path d="M2.08331 10.0002C2.08331 6.26821 2.08331 4.40224 3.24268 3.24286C4.40205 2.0835 6.26803 2.0835 9.99998 2.0835C13.7319 2.0835 15.5979 2.0835 16.7573 3.24286C17.9166 4.40224 17.9166 6.26821 17.9166 10.0002C17.9166 13.7321 17.9166 15.5981 16.7573 16.7575C15.5979 17.9168 13.7319 17.9168 9.99998 17.9168C6.26803 17.9168 4.40205 17.9168 3.24268 16.7575C2.08331 15.5981 2.08331 13.7321 2.08331 10.0002Z" stroke="white" stroke-width="1.5" stroke-linejoin="round"/>
</svg>