<svg width="24" height="24" viewBox="0 0 24 24" fill="none" xmlns="http://www.w3.org/2000/svg">
<path d="M20.4697 21.5303C20.7626 21.8232 21.2374 21.8232 21.5303 21.5303C21.8232 21.2374 21.8232 20.7626 21.5303 20.4697L21 21L20.4697 21.5303ZM18.8824 10.9412H18.1324C18.1324 14.9128 14.9128 18.1324 10.9412 18.1324V18.8824V19.6324C15.7412 19.6324 19.6324 15.7412 19.6324 10.9412H18.8824ZM10.9412 18.8824V18.1324C6.9696 18.1324 3.75 14.9128 3.75 10.9412H3H2.25C2.25 15.7412 6.14117 19.6324 10.9412 19.6324V18.8824ZM3 10.9412H3.75C3.75 6.9696 6.9696 3.75 10.9412 3.75V3V2.25C6.14117 2.25 2.25 6.14117 2.25 10.9412H3ZM10.9412 3V3.75C14.9128 3.75 18.1324 6.9696 18.1324 10.9412H18.8824H19.6324C19.6324 6.14117 15.7412 2.25 10.9412 2.25V3ZM21 21L21.5303 20.4697L17.0964 16.0358L16.5661 16.5661L16.0358 17.0964L20.4697 21.5303L21 21Z" fill="#282828"/>
</svg>