<svg width="20" height="20" viewBox="0 0 20 20" fill="none" xmlns="http://www.w3.org/2000/svg">
<path d="M10 17.0832C11.5081 17.0832 12.9543 16.9342 14.2945 16.661C15.9686 16.3198 16.8057 16.1491 17.5695 15.167C18.3334 14.1849 18.3334 13.0576 18.3334 10.8028V9.19692C18.3334 6.94211 18.3334 5.81473 17.5695 4.83265C16.8057 3.85057 15.9686 3.67995 14.2945 3.33869C12.9543 3.06548 11.5081 2.9165 10 2.9165C8.49194 2.9165 7.04576 3.06548 5.70549 3.33869C4.0314 3.67995 3.19436 3.85057 2.43052 4.83265C1.66669 5.81473 1.66669 6.94211 1.66669 9.19692V10.8028C1.66669 13.0576 1.66669 14.1849 2.43052 15.167C3.19436 16.1491 4.0314 16.3198 5.70549 16.661C7.04576 16.9342 8.49194 17.0832 10 17.0832Z" stroke="white" stroke-width="1.5"/>
<path d="M13.3017 10.2609C13.1781 10.7657 12.5201 11.1283 11.2041 11.8536C9.77267 12.6422 9.057 13.0367 8.47733 12.8847C8.281 12.8332 8.10017 12.7427 7.94832 12.62C7.5 12.2576 7.5 11.5051 7.5 10.0002C7.5 8.49524 7.5 7.74276 7.94832 7.38031C8.10017 7.25754 8.281 7.16707 8.47733 7.11561C9.057 6.96367 9.77267 7.35804 11.2041 8.14677C12.5201 8.87199 13.1781 9.23458 13.3017 9.73941C13.3438 9.91124 13.3438 10.0891 13.3017 10.2609Z" stroke="white" stroke-width="1.5" stroke-linejoin="round"/>
</svg>